<?xml version="1.0" encoding="utf-8"?>
<!-- Generator: Adobe Illustrator 26.0.1, SVG Export Plug-In . SVG Version: 6.00 Build 0)  -->
<svg version="1.1" id="Camada_1" xmlns="http://www.w3.org/2000/svg" xmlns:xlink="http://www.w3.org/1999/xlink" x="0px" y="0px"
	 viewBox="0 0 1080 1080" style="enable-background:new 0 0 1080 1080;" xml:space="preserve">
<style type="text/css">
	.st0{fill:#2326FE;}
</style>
<g>
	<path class="st0" d="M367.03,1080c-29.53,0-59.06,0-88.59,0c-1.11-0.75-2.15-1.64-3.34-2.23c-21.95-11.02-26.48-34.25-10-52.33
		c5.44-5.97,11.48-11.38,17.1-17.19c14.86-15.35,26.25-32.72,31.63-54.81c-29.11,0-57.5,0.05-85.89-0.01
		c-58.63-0.13-99.22-40.82-99.24-99.64c-0.06-144.47-0.05-288.94,0-433.41c0.02-59.35,40.59-99.73,100.17-99.74
		c207.39-0.04,414.78-0.04,622.17,0c60.12,0.01,100.27,40.33,100.29,100.69c0.04,143.77,0.04,287.53,0,431.3
		c-0.02,60.74-40.28,100.79-101.25,100.81c-110.72,0.03-221.45,0.01-332.17,0.01c-4.14,0-8.28,0-12.39,0
		c-1.18,4-2.08,6.99-2.95,9.98c-15.14,51.7-47.9,87.41-98.11,106.62C392.45,1074.63,379.53,1076.75,367.03,1080z M539.97,605.39
		c-62.16,0-124.33,0.08-186.49-0.06c-14.82-0.04-26.08,5.66-32.23,19.23c-9.78,21.59,6.44,44.03,31.77,44.07
		c72.35,0.11,144.7,0.04,217.05,0.04c52.33,0,104.66-0.05,156.99,0.03c14.35,0.02,25.33-5.61,31.45-18.75
		c10.07-21.59-5.83-44.46-30.99-44.52C665,605.3,602.48,605.39,539.97,605.39z M541.09,731.95c-62.51,0-125.03,0.09-187.54-0.06
		c-14.81-0.04-26.09,5.61-32.27,19.17c-9.82,21.58,6.37,44.09,31.67,44.13c67.08,0.12,134.16,0.04,201.24,0.04
		c57.6,0,115.2-0.05,172.79,0.03c13.85,0.02,24.65-5.16,31-17.76c10.96-21.77-4.77-45.44-30.39-45.5
		C665.42,731.85,603.25,731.96,541.09,731.95z M602.48,542.11c41.08,0,82.15,0.04,123.23-0.02c21.35-0.03,35.72-12.83,35.73-31.62
		c0-18.78-14.39-31.62-35.72-31.63c-81.8-0.04-163.6-0.02-245.41,0.02c-3.49,0-7.08,0.05-10.44,0.85
		c-15.6,3.69-26.05,17.98-24.7,33.38c1.42,16.27,14.8,28.82,31.97,28.93C518.92,542.26,560.7,542.1,602.48,542.11z"/>
	<path class="st0" d="M1080,23.2c0,239.06,0,478.12,0,717.19c-14.06,23.32-34.85,30.18-65.39,21.37c0-4.12,0-8.33,0-12.54
		c0-110.7,0.15-221.4-0.05-332.1c-0.16-89.93-69.87-159.67-159.85-159.74c-209.8-0.16-419.6-0.1-629.4,0.09
		c-11.16,0.01-22.55,0.97-33.45,3.29C116.7,276.78,65.53,340.13,65.43,417.11c-0.15,111.05-0.04,222.1-0.04,333.15
		c0,4.12,0,8.23,0,13.06c-25.15-0.45-51.88,7.45-65.39-22.93C0,501.33,0,262.27,0,23.2C5.05,12.78,12.76,5.03,23.2,0
		C367.73,0,712.27,0,1056.8,0C1067.22,5.05,1074.98,12.75,1080,23.2z M317.46,189.84c51.62,0,103.24,0.03,154.86-0.01
		c21.5-0.02,35.83-12.58,36-31.36c0.17-18.79-14.27-31.88-35.47-31.88c-102.89-0.04-205.78-0.04-308.66,0
		c-21.17,0.01-35.64,13.11-35.48,31.88c0.16,18.69,14.61,31.36,36,31.37C215.62,189.87,266.54,189.84,317.46,189.84z M666.44,126.59
		c-17.07,0.07-31.41,14.39-31.48,31.46c-0.08,17.06,14.13,31.52,31.19,31.75c17.49,0.24,32.22-14.49,32.01-31.99
		C697.95,140.73,683.52,126.53,666.44,126.59z M824.72,158.31c0.07-17.09-14.12-31.51-31.22-31.72
		c-17.05-0.21-31.63,13.9-31.98,30.96c-0.36,17.46,14.29,32.33,31.75,32.25C810.35,189.72,824.66,175.4,824.72,158.31z
		 M919.7,189.81c17.07-0.01,31.44-14.28,31.58-31.36c0.14-17.09-13.99-31.57-31.09-31.85c-17.46-0.29-32.27,14.41-32.11,31.88
		C888.24,175.53,902.65,189.81,919.7,189.81z"/>
</g>
</svg>
