<svg width="1083" height="904" viewBox="0 0 1083 904" fill="none" xmlns="http://www.w3.org/2000/svg">
<g clip-path="url(#clip0_1_2)">
<path d="M0 295.53V249C1.31 241.77 2.54 234.53 4 227.32C24.36 123.18 84 50.66 184 16.4C284.69 -18.1 377.19 2.31999 457.38 72.99C478.77 91.84 498.38 112.77 518.54 132.92C525.95 140.32 532.83 148.25 540.3 156.32C544.94 151.95 547.76 149.39 550.48 146.72C574.84 122.72 598.32 97.78 623.68 74.9C701.68 4.52 792.53 -17.1 892.54 13.97C1089.54 75.14 1147.54 320.5 1000.44 466.97C859.84 606.97 718.893 746.637 577.6 885.97C553.85 909.49 529.2 909.45 505.5 885.97C364.5 746.37 223.517 606.747 82.55 467.1C45.1 430.02 19.55 386.2 7.41 334.82C4.31 321.84 2.43 308.63 0 295.53Z" fill="black"/>
</g>
<defs>
<clipPath id="clip0_1_2">
<rect width="1082.88" height="903.57" fill="white"/>
</clipPath>
</defs>
</svg>
