<?xml version="1.0" encoding="utf-8"?>
<!-- Generator: Adobe Illustrator 26.0.1, SVG Export Plug-In . SVG Version: 6.00 Build 0)  -->
<svg version="1.1" id="Camada_1" xmlns="http://www.w3.org/2000/svg" xmlns:xlink="http://www.w3.org/1999/xlink" x="0px" y="0px"
	 viewBox="0 0 1080 1080" style="enable-background:new 0 0 1080 1080;" xml:space="preserve">
<style type="text/css">
	.st0{fill:#2326FE;}
</style>
<g>
	<path class="st0" d="M525.23,0c9.84,0,19.69,0,29.53,0c1.2,0.62,2.33,1.57,3.6,1.8c26.02,4.73,46.99,17.7,63.45,38.32
		c13.59,17.03,27.65,33.68,41.01,50.89c11.07,14.27,24.68,18.44,41.89,13.52c20.58-5.88,41.36-11.03,62-16.71
		c64.19-17.67,124.95,22.55,132.4,88.57c2.6,23,2.8,46.28,3.9,69.45c1.09,22.74,7.14,31.23,28.24,39.27
		c20,7.61,40.03,15.16,59.92,23.05c63.42,25.16,86.64,96.67,50.08,154.24c-12.05,18.97-24.37,37.78-36.81,56.5
		c-9.44,14.2-9.42,28,0.03,42.2c12.26,18.42,24.32,36.98,36.21,55.64c37.11,58.25,14.43,129.42-49.52,155.13
		c-20.18,8.11-40.45,16.07-60.98,23.23c-18.42,6.42-26.73,18.92-27.19,38.04c-0.48,20.37-1.55,40.74-2.75,61.08
		c-4.13,69.98-64.27,115.55-130.56,98.85c-22.11-5.57-44.06-11.78-66.03-17.92c-16.39-4.58-29.52-0.39-40.13,13.06
		c-14.36,18.21-28.01,37.19-44.1,53.75c-11.47,11.81-25.99,20.95-40.08,29.78c-7.11,4.46-16.3,5.6-24.55,8.25
		c-9.84,0-19.69,0-29.53,0c-1.19-0.62-2.32-1.58-3.59-1.81c-26.08-4.63-46.96-17.78-63.44-38.32c-13.63-17-27.64-33.69-41.03-50.88
		c-11.06-14.2-24.57-18.5-41.86-13.58c-23.28,6.62-46.61,13.2-70.2,18.58c-58.6,13.37-117.2-27.72-123.86-87.22
		c-2.73-24.4-3.38-49.07-4.23-73.64c-0.66-19.07-8.78-31.66-27.18-38.11c-20.19-7.08-40.02-15.17-60-22.85
		C25.8,747.55,1.91,675.49,38.72,617.62c12.06-18.97,24.38-37.77,36.82-56.5c9.42-14.19,9.43-28.03,0.03-42.23
		c-12.79-19.33-25.62-38.65-37.88-58.32c-35.27-56.56-11.08-128.4,51.13-152.42c20.29-7.83,40.48-15.98,61-23.16
		c18.4-6.44,26.7-19.01,27.18-38.09c0.51-20.37,1.6-40.74,2.75-61.09c4.06-71.97,64.9-116.1,134.54-97.67
		c20.35,5.39,40.75,10.6,60.99,16.39c17.21,4.92,30.81,0.73,41.9-13.51c14.03-18.02,28.56-35.65,43.07-53.3
		c15.51-18.87,35.37-30.66,59.29-35.65C521.49,1.66,523.34,0.7,525.23,0z M209.47,530.42c-5.59,176.05,138.02,329.66,313.42,336.47
		C708.41,874.1,858,731.36,866.91,555.1c9.32-184.39-133.51-338.69-315.11-345.71C367.19,202.25,215.34,345.37,209.47,530.42z"/>
	<path class="st0" d="M538.83,796.63c-141.91,0.55-258.27-115.47-258.67-257.94c-0.4-142.98,115.49-259.16,258.4-259.04
		c142.45,0.12,258.38,115.93,258.49,258.23C797.15,679.95,681.28,796.07,538.83,796.63z M721.42,491.53
		c-0.23-16.83-11.73-30.99-28.96-33.89c-25.27-4.25-50.66-7.86-76.05-11.3c-6.62-0.9-10.33-3.57-13.22-9.73
		c-10.14-21.6-21.08-42.81-31.49-64.29c-6.88-14.2-17.37-22.76-33.69-22.62c-15.87,0.14-26.04,8.66-32.74,22.43
		c-10.14,20.83-21.08,41.28-30.45,62.45c-3.92,8.85-9.72,11.44-18.24,12.53c-22.63,2.91-45.18,6.44-67.8,9.51
		c-15.25,2.07-26.64,9.43-31.47,24.28c-4.94,15.2-0.15,28.09,11.39,39.06c17.57,16.71,34.99,33.6,51.89,50.98
		c3.02,3.11,5.06,9.21,4.44,13.48c-3.46,23.96-7.54,47.85-12.08,71.64c-2.99,15.72,0.65,28.78,13.65,38.18
		c13.09,9.47,26.84,8.23,40.68,0.82c21.04-11.27,42.35-22.04,63.3-33.47c5.53-3.02,9.74-3.25,15.39-0.15
		c20.93,11.47,42.26,22.19,63.28,33.49c14.21,7.64,28.17,8.79,41.57-1.09c13.56-9.99,15.65-24.03,12.86-39.66
		c-4.21-23.5-8.4-47-11.86-70.62c-0.58-3.95,1.38-9.62,4.21-12.49c17.23-17.55,35.01-34.57,52.68-51.68
		C716.66,511.75,721.53,502.8,721.42,491.53z"/>
</g>
</svg>
