<?xml version="1.0" encoding="utf-8"?>
<!-- Generator: Adobe Illustrator 26.0.1, SVG Export Plug-In . SVG Version: 6.00 Build 0)  -->
<svg version="1.1" id="Camada_1" xmlns="http://www.w3.org/2000/svg" xmlns:xlink="http://www.w3.org/1999/xlink" x="0px" y="0px"
	 viewBox="0 0 1080 903.57" style="enable-background:new 0 0 1080 903.57;" xml:space="preserve">
<path d="M0,295.53c0-15.51,0-31.02,0-46.53c1.31-7.23,2.54-14.47,3.95-21.68c20.36-104.14,80.02-176.65,180-210.91
	c100.69-34.5,193.2-14.08,273.39,56.59c21.38,18.85,40.94,39.77,61.15,59.93c7.41,7.39,14.29,15.33,21.76,23.4
	c4.64-4.37,7.46-6.93,10.18-9.6c24.36-23.99,47.84-48.94,73.2-71.81C701.67,4.52,792.49-17.08,892.5,13.97
	c197.05,61.17,254.99,306.53,107.9,452.99c-140.6,140-281.84,279.38-422.84,418.98c-23.75,23.52-48.4,23.48-72.1,0.01
	c-141-139.61-281.94-279.27-422.95-418.87C45.06,430,19.49,386.18,7.37,334.8C4.31,321.85,2.43,308.63,0,295.53z"/>
</svg>
