<?xml version="1.0" encoding="utf-8"?>
<!-- Generator: Adobe Illustrator 26.0.1, SVG Export Plug-In . SVG Version: 6.00 Build 0)  -->
<svg version="1.1" id="Camada_1" xmlns="http://www.w3.org/2000/svg" xmlns:xlink="http://www.w3.org/1999/xlink" x="0px" y="0px"
	 viewBox="0 0 260 51" style="enable-background:new 0 0 260 51;" xml:space="preserve">
<style type="text/css">
	.st0{fill:#2F302B;}
</style>
<g>
	<g>
		<path class="st0" d="M86.33,6.09H96.9l-5.77,29h17.84l-1.71,8.38H78.85L86.33,6.09z"/>
		<path class="st0" d="M149.13,31.62c0,8.12-7.53,11.86-17.14,11.86h-20.56l7.48-37.38h18.9c8.44,0,12.98,3.15,12.98,8.76
			c0,4.49-2.62,7.64-6.68,9.35C147.31,25.58,149.13,28.15,149.13,31.62z M138.61,31.4c0-2.24-1.82-3.15-4.38-3.15h-9.35l-1.5,7.58
			h9.19C136.26,35.84,138.61,34.39,138.61,31.4z M127.82,13.73l-1.44,7.21h7.58c3.74,0,5.77-1.5,5.77-4.27
			c0-2.03-1.66-2.94-4.43-2.94H127.82z"/>
		<path class="st0" d="M180.64,32.26l6.35,11.21h-11.05l-5.55-9.93h-5.34l-1.98,9.93h-10.57l7.48-37.38h15.97
			C185.5,6.09,191,10.52,191,18C191,24.89,187.15,30.02,180.64,32.26z M174.44,14.42h-5.55l-2.24,10.95h6.3
			c4.65,0,7.37-2.24,7.37-6.35C180.32,15.86,178.07,14.42,174.44,14.42z"/>
		<path class="st0" d="M258.12,6.09l-19.6,37.38H227.2l-2.72-22.54l-11.91,22.54H201.2L196.6,6.09h10.41l2.88,23.87l12.6-23.87h9.77
			l2.67,24.19l12.71-24.19H258.12z"/>
	</g>
	<g>
		<path class="st0" d="M32.43,0.94l30.18,15.83v9.14l-18.2,2.2l18.2,9.62v9.18l-30.18,3.71V42.2l19.28-2.33L32.43,29.7v-7.89
			l19.53-2.16L32.43,9.39V0.94z"/>
	</g>
	<g>
		<path class="st0" d="M32.43,50.61L2.24,34.79v-9.14l18.2-2.2l-18.2-9.62V4.65l30.18-3.71v8.41l-19.28,2.33l19.28,10.18v7.89
			L12.89,31.9l19.53,10.26V50.61z"/>
	</g>
</g>
</svg>
