<?xml version="1.0" encoding="utf-8"?>
<!-- Generator: Adobe Illustrator 26.0.1, SVG Export Plug-In . SVG Version: 6.00 Build 0)  -->
<svg version="1.1" id="Camada_1" xmlns="http://www.w3.org/2000/svg" xmlns:xlink="http://www.w3.org/1999/xlink" x="0px" y="0px"
	 viewBox="0 0 1080 1099.84" style="enable-background:new 0 0 1080 1099.84;" xml:space="preserve">
<style type="text/css">
	.st0{fill:#2326FE;}
</style>
<path class="st0" d="M555.02,1098.89c-10.01,0-20.02,0-30.03,0c-1.21-0.63-2.36-1.61-3.65-1.84c-26.52-4.7-47.75-18.07-64.5-38.96
	c-13.86-17.28-28.11-34.25-41.71-51.73c-11.25-14.45-25.01-18.77-42.58-13.79c-24.02,6.8-48.07,13.68-72.42,19.15
	c-58.8,13.21-118.22-28.97-124.87-88.97c-2.79-25.17-3.36-50.6-4.39-75.93c-0.75-18.5-8.86-30.87-26.58-37.27
	c-20.8-7.51-41.36-15.68-62-23.61C17.19,760.94-7.1,687.6,30.36,628.83c12.28-19.27,24.81-38.39,37.44-57.44
	c9.57-14.43,9.54-28.51-0.02-42.94c-13.01-19.65-26.05-39.29-38.52-59.29C-6.6,411.7,18.04,338.64,81.31,314.24
	c20.63-7.96,41.16-16.23,62.02-23.55c18.7-6.56,27.12-19.36,27.59-38.76c0.51-20.71,1.62-41.41,2.79-62.1
	c4.14-73.15,65.93-117.92,136.85-99.21c21.04,5.55,42.07,11.16,63.05,16.95c16.63,4.59,30.03,0.43,40.83-13.27
	c14.6-18.51,29.44-36.85,44.5-54.98c42.49-51.16,119.62-51.17,162.09-0.03c14.84,17.86,29.52,35.87,43.79,54.18
	c11.26,14.45,25.06,18.83,42.58,13.8c21.26-6.09,42.7-11.55,64.05-17.35c64.44-17.5,126.22,23.83,133.66,90.32
	c2.66,23.74,3.19,47.76,3.93,71.67c0.6,19.43,8.94,32.14,27.65,38.68c21.2,7.42,42.15,15.63,62.99,24.01
	c63.68,25.63,86.89,98.36,49.99,156.4c-12.45,19.58-25.21,38.98-37.95,58.38c-9.02,13.74-9.05,27.26-0.01,41.01
	c12.36,18.8,24.63,37.66,36.76,56.6c38.92,60.77,15.56,132.77-51.75,159.38c-19.9,7.87-39.79,15.84-59.99,22.87
	c-18.73,6.51-27.2,19.21-27.66,38.65c-0.49,20.71-1.57,41.42-2.8,62.1c-4.4,73.82-66.61,118.42-137.87,99.03
	c-20.65-5.62-41.36-11.02-61.99-16.73c-16.64-4.61-30.02-0.43-40.82,13.27c-14.82,18.8-29.97,37.34-45.18,55.81
	c-12.32,14.96-27.81,25.53-46.23,31.66C567.84,1095.16,561.41,1096.95,555.02,1098.89z M729.27,394.83
	c0.18-16.29-7.93-29.04-21.09-34.88c-14.72-6.53-29.27-3.16-42.7,10.27C555.85,479.77,446.25,589.34,336.69,698.96
	c-16.67,16.68-17.74,38.27-2.96,53.25c14.65,14.86,36.76,14,53.3-2.29c14.75-14.54,29.32-29.26,43.97-43.9
	c94.45-94.43,188.88-188.87,283.39-283.24C722.71,414.46,729.6,405.69,729.27,394.83z M395.36,356.92
	c-39.58-0.11-71.81,31.81-71.94,71.25c-0.13,39.33,32.04,71.86,71.32,72.11c39.03,0.24,71.9-32.34,72.09-71.47
	C467.02,389.58,434.66,357.03,395.36,356.92z M729.29,690.99c-0.15-39.76-32.02-71.39-71.71-71.19
	c-39.73,0.2-71.35,32.09-71.19,71.77c0.16,39.72,31.98,71.25,71.77,71.13C697.89,762.57,729.44,730.77,729.29,690.99z"/>
</svg>
