<?xml version="1.0" encoding="utf-8"?>
<!-- Generator: Adobe Illustrator 26.0.1, SVG Export Plug-In . SVG Version: 6.00 Build 0)  -->
<svg version="1.1" id="Camada_1" xmlns="http://www.w3.org/2000/svg" xmlns:xlink="http://www.w3.org/1999/xlink" x="0px" y="0px"
	 viewBox="0 0 611.7 1027.17" style="enable-background:new 0 0 611.7 1027.17;" xml:space="preserve">
<style type="text/css">
	.st0{fill:#FFFFFF;}
</style>
<path class="st0" d="M83.78,1026.51c-30.27-10.4-48.79-35.17-68.36-57.88c-15.4-17.87-13.39-47.44,1.47-65.99
	c3.53-4.41,7.55-8.46,11.55-12.47c122.41-122.48,244.85-244.94,367.32-367.36c2.8-2.8,6.06-5.13,9.6-8.09
	c-3.94-4.14-6.58-7.02-9.34-9.78C272.64,381.53,149.23,258.15,25.86,134.74C3.85,112.72-2.8,85.66,13.65,63.55
	C28.73,43.27,47.62,24.98,67.68,9.48c18.41-14.23,44.09-10.17,62.34,4.45c2.86,2.29,5.62,4.73,8.21,7.32
	c149.59,149.57,299.18,299.14,448.71,448.76c21.96,21.98,26.36,48.7,11.9,72.64c-3.23,5.35-7.53,10.2-11.98,14.65
	c-149.5,149.66-298.98,299.34-448.9,448.57c-8.82,8.78-21.34,13.85-32.14,20.65C98.46,1026.51,91.12,1026.51,83.78,1026.51z"/>
</svg>
